# xmcd
#
# Track frame offsets:
#	183
#	19158
#	45708
#	70383
#
# Disc length: 1282 seconds
#
# Revision: 1
# Processed by: cddbd v1.5.2PL0 Copyright (c) Steve Scherf et al.
# Submitted via: audiograbber 1.83.01
#
DISCID=31050004
DTITLE=Undercover - Lovesick
DYEAR=1993
DGENRE=Pop
TTITLE0=Lovesick (Edit)
TTITLE1=Lovesick (Essential Mix)
TTITLE2=Lovesick (Rubber Dub Luv Mix)
TTITLE3=Sha Do (Extended)
EXTD=P 1993 PWL International Ltd.\nC 1993 EPM Records Ltd.\nPWCD 271\n4509 934
EXTD=61 2\nFRANCE CA 773\n7 4509-93461-2 6
EXTT0=
EXTT1=
EXTT2=
EXTT3=
PLAYORDER=
